<mxfile host="app.diagrams.net" modified="2023-06-02T16:40:41.660Z" agent="Mozilla/5.0 (Windows NT 10.0; Win64; x64; rv:109.0) Gecko/20100101 Firefox/113.0" etag="0MW67oYqVLdqkHdj3b7g" version="21.3.2" type="github">
  <diagram id="C5RBs43oDa-KdzZeNtuy" name="Page-1">
    <mxGraphModel dx="1434" dy="754" grid="1" gridSize="10" guides="1" tooltips="1" connect="1" arrows="1" fold="1" page="1" pageScale="1" pageWidth="827" pageHeight="1169" math="0" shadow="0">
      <root>
        <mxCell id="WIyWlLk6GJQsqaUBKTNV-0" />
        <mxCell id="WIyWlLk6GJQsqaUBKTNV-1" parent="WIyWlLk6GJQsqaUBKTNV-0" />
        <mxCell id="U5RVJwo38xha9huWu8kf-47" style="edgeStyle=orthogonalEdgeStyle;rounded=0;orthogonalLoop=1;jettySize=auto;html=1;exitX=0.5;exitY=1;exitDx=0;exitDy=0;entryX=0.855;entryY=0;entryDx=0;entryDy=4.35;entryPerimeter=0;labelBackgroundColor=none;strokeColor=#ffffff;fontColor=default;" edge="1" parent="WIyWlLk6GJQsqaUBKTNV-1" source="U5RVJwo38xha9huWu8kf-3" target="U5RVJwo38xha9huWu8kf-35">
          <mxGeometry relative="1" as="geometry" />
        </mxCell>
        <mxCell id="U5RVJwo38xha9huWu8kf-70" value="Reads" style="edgeLabel;html=1;align=center;verticalAlign=middle;resizable=0;points=[];fontColor=#FFFFFF;" vertex="1" connectable="0" parent="U5RVJwo38xha9huWu8kf-47">
          <mxGeometry x="0.2635" y="1" relative="1" as="geometry">
            <mxPoint y="59" as="offset" />
          </mxGeometry>
        </mxCell>
        <mxCell id="U5RVJwo38xha9huWu8kf-3" value="Tracking Program" style="rounded=1;whiteSpace=wrap;html=1;labelBackgroundColor=none;fillColor=#182E3E;strokeColor=#FFFFFF;fontColor=#FFFFFF;" vertex="1" parent="WIyWlLk6GJQsqaUBKTNV-1">
          <mxGeometry x="508" y="210" width="180" height="110" as="geometry" />
        </mxCell>
        <mxCell id="U5RVJwo38xha9huWu8kf-5" value="Server" style="swimlane;whiteSpace=wrap;html=1;labelBackgroundColor=none;fillColor=#182E3E;strokeColor=#FFFFFF;fontColor=#FFFFFF;" vertex="1" parent="WIyWlLk6GJQsqaUBKTNV-1">
          <mxGeometry x="139" y="330" width="549" height="580" as="geometry" />
        </mxCell>
        <mxCell id="U5RVJwo38xha9huWu8kf-51" style="edgeStyle=orthogonalEdgeStyle;rounded=0;orthogonalLoop=1;jettySize=auto;html=1;exitX=0.5;exitY=0;exitDx=0;exitDy=0;exitPerimeter=0;entryX=0;entryY=0.5;entryDx=0;entryDy=0;strokeColor=#ffffff;labelBackgroundColor=none;fontColor=default;" edge="1" parent="U5RVJwo38xha9huWu8kf-5" source="U5RVJwo38xha9huWu8kf-17" target="U5RVJwo38xha9huWu8kf-34">
          <mxGeometry relative="1" as="geometry" />
        </mxCell>
        <mxCell id="U5RVJwo38xha9huWu8kf-69" value="Reads" style="edgeLabel;html=1;align=center;verticalAlign=middle;resizable=0;points=[];fontColor=#FFFFFF;" vertex="1" connectable="0" parent="U5RVJwo38xha9huWu8kf-51">
          <mxGeometry x="0.2632" y="-2" relative="1" as="geometry">
            <mxPoint as="offset" />
          </mxGeometry>
        </mxCell>
        <mxCell id="U5RVJwo38xha9huWu8kf-17" value="Saved Search CSV" style="shape=cylinder3;whiteSpace=wrap;html=1;boundedLbl=1;backgroundOutline=1;size=15;labelBackgroundColor=none;fillColor=#182E3E;strokeColor=#FFFFFF;fontColor=#FFFFFF;" vertex="1" parent="U5RVJwo38xha9huWu8kf-5">
          <mxGeometry x="40" y="430" width="170" height="100" as="geometry" />
        </mxCell>
        <mxCell id="U5RVJwo38xha9huWu8kf-25" value="Tracking Script" style="swimlane;fontStyle=0;childLayout=stackLayout;horizontal=1;startSize=30;horizontalStack=0;resizeParent=1;resizeParentMax=0;resizeLast=0;collapsible=1;marginBottom=0;whiteSpace=wrap;html=1;labelBackgroundColor=none;fillColor=#182E3E;strokeColor=#FFFFFF;fontColor=#FFFFFF;" vertex="1" parent="U5RVJwo38xha9huWu8kf-5">
          <mxGeometry x="154" y="50" width="240" height="310" as="geometry" />
        </mxCell>
        <mxCell id="U5RVJwo38xha9huWu8kf-26" value="1. Reads the current counters for each product in the tracking database." style="text;strokeColor=none;fillColor=none;align=left;verticalAlign=middle;spacingLeft=4;spacingRight=4;overflow=hidden;points=[[0,0.5],[1,0.5]];portConstraint=eastwest;rotatable=0;whiteSpace=wrap;html=1;labelBackgroundColor=none;fontColor=#FFFFFF;" vertex="1" parent="U5RVJwo38xha9huWu8kf-25">
          <mxGeometry y="30" width="240" height="50" as="geometry" />
        </mxCell>
        <mxCell id="U5RVJwo38xha9huWu8kf-34" value="2. Reads the data from the saved search for all the Edmonton products that are tracked." style="text;strokeColor=none;fillColor=none;align=left;verticalAlign=middle;spacingLeft=4;spacingRight=4;overflow=hidden;points=[[0,0.5],[1,0.5]];portConstraint=eastwest;rotatable=0;whiteSpace=wrap;html=1;labelBackgroundColor=none;fontColor=#FFFFFF;" vertex="1" parent="U5RVJwo38xha9huWu8kf-25">
          <mxGeometry y="80" width="240" height="50" as="geometry" />
        </mxCell>
        <mxCell id="U5RVJwo38xha9huWu8kf-33" value="3. Checks if there has been any new orders from the saved search." style="text;strokeColor=none;fillColor=none;align=left;verticalAlign=middle;spacingLeft=4;spacingRight=4;overflow=hidden;points=[[0,0.5],[1,0.5]];portConstraint=eastwest;rotatable=0;whiteSpace=wrap;html=1;labelBackgroundColor=none;fontColor=#FFFFFF;" vertex="1" parent="U5RVJwo38xha9huWu8kf-25">
          <mxGeometry y="130" width="240" height="50" as="geometry" />
        </mxCell>
        <mxCell id="U5RVJwo38xha9huWu8kf-29" value="4. If change is detected, add it to the counter" style="text;strokeColor=none;fillColor=none;align=left;verticalAlign=middle;spacingLeft=4;spacingRight=4;overflow=hidden;points=[[0,0.5],[1,0.5]];portConstraint=eastwest;rotatable=0;whiteSpace=wrap;html=1;labelBackgroundColor=none;fontColor=#FFFFFF;" vertex="1" parent="U5RVJwo38xha9huWu8kf-25">
          <mxGeometry y="180" width="240" height="30" as="geometry" />
        </mxCell>
        <mxCell id="U5RVJwo38xha9huWu8kf-30" value="5. If counter exceeds the threshold, send an email to purchasing to re-order that product." style="text;strokeColor=none;fillColor=none;align=left;verticalAlign=middle;spacingLeft=4;spacingRight=4;overflow=hidden;points=[[0,0.5],[1,0.5]];portConstraint=eastwest;rotatable=0;whiteSpace=wrap;html=1;labelBackgroundColor=none;fontColor=#FFFFFF;" vertex="1" parent="U5RVJwo38xha9huWu8kf-25">
          <mxGeometry y="210" width="240" height="50" as="geometry" />
        </mxCell>
        <mxCell id="U5RVJwo38xha9huWu8kf-31" value="6. Set the counter to the amount it exceeded the threshold by. Save to Database." style="text;strokeColor=none;fillColor=none;align=left;verticalAlign=middle;spacingLeft=4;spacingRight=4;overflow=hidden;points=[[0,0.5],[1,0.5]];portConstraint=eastwest;rotatable=0;whiteSpace=wrap;html=1;labelBackgroundColor=none;fontColor=#FFFFFF;" vertex="1" parent="U5RVJwo38xha9huWu8kf-25">
          <mxGeometry y="260" width="240" height="50" as="geometry" />
        </mxCell>
        <mxCell id="U5RVJwo38xha9huWu8kf-66" style="edgeStyle=orthogonalEdgeStyle;rounded=0;orthogonalLoop=1;jettySize=auto;html=1;exitX=0.5;exitY=0;exitDx=0;exitDy=0;exitPerimeter=0;entryX=1;entryY=0.5;entryDx=0;entryDy=0;strokeColor=#ffffff;" edge="1" parent="U5RVJwo38xha9huWu8kf-5" source="U5RVJwo38xha9huWu8kf-35" target="U5RVJwo38xha9huWu8kf-26">
          <mxGeometry relative="1" as="geometry" />
        </mxCell>
        <mxCell id="U5RVJwo38xha9huWu8kf-68" value="Reads" style="edgeLabel;html=1;align=center;verticalAlign=middle;resizable=0;points=[];fontColor=#FFFFFF;" vertex="1" connectable="0" parent="U5RVJwo38xha9huWu8kf-66">
          <mxGeometry x="0.6798" y="1" relative="1" as="geometry">
            <mxPoint as="offset" />
          </mxGeometry>
        </mxCell>
        <mxCell id="U5RVJwo38xha9huWu8kf-35" value="Tracking Database" style="shape=cylinder3;whiteSpace=wrap;html=1;boundedLbl=1;backgroundOutline=1;size=15;labelBackgroundColor=none;fillColor=#182E3E;strokeColor=#FFFFFF;fontColor=#FFFFFF;" vertex="1" parent="U5RVJwo38xha9huWu8kf-5">
          <mxGeometry x="340" y="430" width="170" height="100" as="geometry" />
        </mxCell>
        <mxCell id="U5RVJwo38xha9huWu8kf-41" style="edgeStyle=orthogonalEdgeStyle;rounded=0;orthogonalLoop=1;jettySize=auto;html=1;exitX=0.25;exitY=1;exitDx=0;exitDy=0;entryX=0.75;entryY=1;entryDx=0;entryDy=0;labelBackgroundColor=none;strokeColor=#ffffff;fontColor=default;" edge="1" parent="U5RVJwo38xha9huWu8kf-5" source="U5RVJwo38xha9huWu8kf-25" target="U5RVJwo38xha9huWu8kf-25">
          <mxGeometry relative="1" as="geometry">
            <Array as="points">
              <mxPoint x="214" y="410" />
              <mxPoint x="334" y="410" />
            </Array>
          </mxGeometry>
        </mxCell>
        <mxCell id="U5RVJwo38xha9huWu8kf-73" value="Every Hour" style="edgeLabel;html=1;align=center;verticalAlign=middle;resizable=0;points=[];fontColor=#FFFFFF;" vertex="1" connectable="0" parent="U5RVJwo38xha9huWu8kf-41">
          <mxGeometry x="0.1091" y="-4" relative="1" as="geometry">
            <mxPoint x="-11" as="offset" />
          </mxGeometry>
        </mxCell>
        <mxCell id="U5RVJwo38xha9huWu8kf-61" value="&lt;h2&gt;&lt;font color=&quot;#ff0000&quot;&gt;2.&lt;/font&gt;&lt;/h2&gt;" style="text;html=1;align=center;verticalAlign=middle;whiteSpace=wrap;rounded=0;labelBackgroundColor=none;fontColor=#FFFFFF;" vertex="1" parent="U5RVJwo38xha9huWu8kf-5">
          <mxGeometry x="101" y="120" width="60" height="30" as="geometry" />
        </mxCell>
        <mxCell id="U5RVJwo38xha9huWu8kf-64" value="&lt;h2&gt;&lt;font color=&quot;#ff0000&quot;&gt;3.&lt;/font&gt;&lt;/h2&gt;" style="text;html=1;align=center;verticalAlign=middle;resizable=0;points=[];autosize=1;strokeColor=none;fillColor=none;fontColor=#FFFFFF;labelBackgroundColor=none;" vertex="1" parent="U5RVJwo38xha9huWu8kf-5">
          <mxGeometry x="381" y="360" width="40" height="60" as="geometry" />
        </mxCell>
        <mxCell id="U5RVJwo38xha9huWu8kf-67" style="edgeStyle=orthogonalEdgeStyle;rounded=0;orthogonalLoop=1;jettySize=auto;html=1;exitX=1;exitY=0.5;exitDx=0;exitDy=0;entryX=0.5;entryY=0;entryDx=0;entryDy=0;entryPerimeter=0;strokeColor=#ffffff;" edge="1" parent="U5RVJwo38xha9huWu8kf-5" source="U5RVJwo38xha9huWu8kf-31" target="U5RVJwo38xha9huWu8kf-35">
          <mxGeometry relative="1" as="geometry" />
        </mxCell>
        <mxCell id="U5RVJwo38xha9huWu8kf-72" value="Saves" style="edgeLabel;html=1;align=center;verticalAlign=middle;resizable=0;points=[];fontColor=#FFFFFF;" vertex="1" connectable="0" parent="U5RVJwo38xha9huWu8kf-67">
          <mxGeometry x="0.0635" relative="1" as="geometry">
            <mxPoint y="29" as="offset" />
          </mxGeometry>
        </mxCell>
        <mxCell id="U5RVJwo38xha9huWu8kf-48" style="edgeStyle=orthogonalEdgeStyle;rounded=0;orthogonalLoop=1;jettySize=auto;html=1;exitX=0.5;exitY=1;exitDx=0;exitDy=0;entryX=0.145;entryY=0;entryDx=0;entryDy=4.35;entryPerimeter=0;labelBackgroundColor=none;strokeColor=#ffffff;fontColor=default;" edge="1" parent="WIyWlLk6GJQsqaUBKTNV-1" source="U5RVJwo38xha9huWu8kf-14" target="U5RVJwo38xha9huWu8kf-17">
          <mxGeometry relative="1" as="geometry" />
        </mxCell>
        <mxCell id="U5RVJwo38xha9huWu8kf-71" value="Saves" style="edgeLabel;html=1;align=center;verticalAlign=middle;resizable=0;points=[];fontColor=#FFFFFF;" vertex="1" connectable="0" parent="U5RVJwo38xha9huWu8kf-48">
          <mxGeometry x="0.2218" y="-4" relative="1" as="geometry">
            <mxPoint y="-12" as="offset" />
          </mxGeometry>
        </mxCell>
        <mxCell id="U5RVJwo38xha9huWu8kf-14" value="NetSuite" style="swimlane;whiteSpace=wrap;html=1;labelBackgroundColor=none;fillColor=#182E3E;strokeColor=#FFFFFF;fontColor=#FFFFFF;" vertex="1" parent="WIyWlLk6GJQsqaUBKTNV-1">
          <mxGeometry x="139" y="210" width="178" height="110" as="geometry" />
        </mxCell>
        <mxCell id="U5RVJwo38xha9huWu8kf-15" value="&lt;div&gt;&lt;b&gt;Saved Search: &lt;br&gt;&lt;/b&gt;&lt;/div&gt;&lt;div&gt;CTI - Daily Inventory Consumption&lt;/div&gt;" style="rounded=1;whiteSpace=wrap;html=1;labelBackgroundColor=none;fillColor=#182E3E;strokeColor=#FFFFFF;fontColor=#FFFFFF;" vertex="1" parent="U5RVJwo38xha9huWu8kf-14">
          <mxGeometry x="19" y="30" width="140" height="70" as="geometry" />
        </mxCell>
        <mxCell id="U5RVJwo38xha9huWu8kf-60" value="&lt;h2&gt;&lt;font color=&quot;#ff0000&quot;&gt;1.&lt;/font&gt;&lt;/h2&gt;" style="text;html=1;align=center;verticalAlign=middle;whiteSpace=wrap;rounded=0;labelBackgroundColor=none;fontColor=#FFFFFF;" vertex="1" parent="WIyWlLk6GJQsqaUBKTNV-1">
          <mxGeometry x="90" y="200" width="60" height="30" as="geometry" />
        </mxCell>
        <mxCell id="U5RVJwo38xha9huWu8kf-65" value="&lt;h2&gt;&lt;font color=&quot;#ff0000&quot;&gt;4.&lt;/font&gt;&lt;/h2&gt;" style="text;html=1;align=center;verticalAlign=middle;resizable=0;points=[];autosize=1;strokeColor=none;fillColor=none;fontColor=#FFFFFF;labelBackgroundColor=none;" vertex="1" parent="WIyWlLk6GJQsqaUBKTNV-1">
          <mxGeometry x="480" y="190" width="40" height="60" as="geometry" />
        </mxCell>
      </root>
    </mxGraphModel>
  </diagram>
</mxfile>
